<?xml version="1.0" standalone="no"?><svg xmlns="http://www.w3.org/2000/svg" viewBox="0 0 1440 320"><path fill="#e7008a" fill-opacity="1" d="M0,192L13.3,160C26.7,128,53,64,80,80C106.7,96,133,192,160,202.7C186.7,213,213,139,240,117.3C266.7,96,293,128,320,122.7C346.7,117,373,75,400,85.3C426.7,96,453,160,480,160C506.7,160,533,96,560,85.3C586.7,75,613,117,640,133.3C666.7,149,693,139,720,149.3C746.7,160,773,192,800,202.7C826.7,213,853,203,880,170.7C906.7,139,933,85,960,106.7C986.7,128,1013,224,1040,224C1066.7,224,1093,128,1120,90.7C1146.7,53,1173,75,1200,74.7C1226.7,75,1253,53,1280,80C1306.7,107,1333,181,1360,186.7C1386.7,192,1413,128,1427,96L1440,64L1440,320L1426.7,320C1413.3,320,1387,320,1360,320C1333.3,320,1307,320,1280,320C1253.3,320,1227,320,1200,320C1173.3,320,1147,320,1120,320C1093.3,320,1067,320,1040,320C1013.3,320,987,320,960,320C933.3,320,907,320,880,320C853.3,320,827,320,800,320C773.3,320,747,320,720,320C693.3,320,667,320,640,320C613.3,320,587,320,560,320C533.3,320,507,320,480,320C453.3,320,427,320,400,320C373.3,320,347,320,320,320C293.3,320,267,320,240,320C213.3,320,187,320,160,320C133.3,320,107,320,80,320C53.3,320,27,320,13,320L0,320Z"></path></svg>